<svg xmlns="http://www.w3.org/2000/svg" xmlns:xlink="http://www.w3.org/1999/xlink" width="24" height="24" viewBox="0 0 24 24" fill="none">
<g  clip-path="url(#clip-path-ZgTuvRwZUlWuhXP_0FHhx)">
<path d="M23.1096 10.2108C22.4711 9.2208 21.7197 8.2398 20.8507 7.32C18.3398 4.6308 15.38 3 12.0001 3C8.6202 3 5.66038 4.6308 3.14946 7.32C2.28048 8.2398 1.52912 9.2208 0.890586 10.2108L0.660138 10.5798C0.400884 10.9992 0.211245 11.3304 0.110423 11.55C-0.040808 11.8308 -0.040808 12.1692 0.110423 12.45L0.220847 12.6606C0.369677 12.9396 0.600125 13.3302 0.890586 13.7892C1.52912 14.7792 2.28048 15.7602 3.14946 16.68C5.66038 19.3692 8.6202 21 12.0001 21C15.38 21 18.3398 19.3692 20.8507 16.68C21.7197 15.7602 22.4711 14.7792 23.1096 13.7892L23.3401 13.4202C23.5993 13.0008 23.789 12.6696 23.8898 12.45C24.041 12.1692 24.041 11.8308 23.8898 11.55L23.7794 11.3394C23.6305 11.0604 23.4001 10.6698 23.1096 10.2108ZM21.57 11.5198L21.43 11.2902C20.8502 10.3998 20.1699 9.5094 19.4008 8.6806C17.2296 6.3706 14.7508 5 11.9999 5C9.24896 5 6.78002 6.3706 4.59898 8.6806C3.8299 9.5094 3.14956 10.3998 2.5698 11.2902C2.46922 11.4498 2.38048 11.5996 2.28977 11.7396L2.1399 12L2.28977 12.2604L2.42978 12.4802L2.5698 12.7098C3.14956 13.6002 3.8299 14.4906 4.59898 15.3194C6.78002 17.6294 9.24896 19 11.9999 19C14.7508 19 17.2296 17.6294 19.4008 15.3194C20.1699 14.4906 20.8502 13.6002 21.43 12.7098C21.5306 12.5502 21.6193 12.4004 21.71 12.2604L21.8599 12L21.71 11.7396L21.57 11.5198ZM16 12C16 14.2104 14.2104 16 12 16C9.7904 16 8 14.2104 8 12C8 9.7904 9.7904 8 12 8C14.2104 8 16 9.7904 16 12ZM14 12C14 13.1 13.1 14 12 14C10.9 14 10 13.1 10 12C10 10.9 10.9 10 12 10C13.1 10 14 10.9 14 12Z" fill-rule="evenodd"  fill="#7D8592" >
</path>
</g>
<defs>
<clipPath id="clip-path-ZgTuvRwZUlWuhXP_0FHhx">
<path d="M0 24L24 24L24 0L0 0L0 24Z" fill="white"/>
</clipPath>
</defs>
</svg>
