<svg xmlns="http://www.w3.org/2000/svg" xmlns:xlink="http://www.w3.org/1999/xlink" viewBox="0 0 32 32" width="24" height="24" style="" filter="none">
    
    <g>
    <path d="M31.456 17.92c0.704-0.704 0.736-1.344 0.032-2.048-2.886-2.925-5.566-5.625-8.254-8.318l0.030 0.030c-0.576-0.576-0.576-0.544 0-1.152l0.064-0.032c0.768-0.8 0.8-1.728 0.032-2.528-0.704-0.736-1.408-1.408-2.112-2.112-0.896-0.928-1.792-0.928-2.688-0.032-1.386 1.354-2.71 2.678-4.019 4.018l-0.045 0.046c-0.192 0.192-0.32 0.224-0.544 0-0.682-0.725-1.35-1.402-2.032-2.065l-0.016-0.015c-0.576-0.608-1.312-0.608-1.92-0.032l-1.856 1.856c-0.576 0.608-0.576 1.312 0.032 1.92 0.736 0.736 1.472 1.504 2.208 2.24 0.192 0.16 0.192 0.256 0.032 0.48-0.864 1.312-0.704 3.008 0.448 4.16 1.056 1.088 2.816 1.248 4.128 0.384 0.192-0.128 0.288-0.096 0.448 0.064 0.685 0.717 1.363 1.395 2.056 2.057l0.024 0.023c0.576 0.576 1.28 0.576 1.856 0 0.64-0.64 1.28-1.248 1.888-1.888 0.576-0.576 0.576-1.28 0.032-1.856l-1.824-1.824c-0.544-0.544-0.544-0.544 0-1.056 0.032-0.064 0.096-0.096 0.128-0.128 0.192-0.32 0.352-0.224 0.544 0 2.176 2.176 4.352 4.384 6.528 6.56 0.192 0.192 0.128 0.288-0.032 0.448-3.296 3.264-6.592 6.528-9.888 9.824-0.128 0.128-0.288 0.192-0.512 0.192-0.736 0-1.472-0.032-2.176 0-0.768 0-1.248 0.48-1.312 1.216-0.032 0.352 0 0.736 0 1.088 0 0.992 0.48 1.472 1.44 1.472h3.456c1.984 0.032 3.968 0.032 5.952 0.032 0.832 0 1.344-0.544 1.344-1.376 0-0.32-0.032-0.672 0-0.992 0.096-0.736-0.48-1.472-1.376-1.44-0.416 0.032-0.864 0-1.344 0l0.32-0.32c2.976-2.976 5.952-5.952 8.928-8.896zM8.672 17.984c-0.64-0.448-1.184-1.024-1.632-1.632-0.128-0.192-0.192-0.192-0.352-0.032l-3.104 3.104c-0.256 0.256-0.416 0.576-0.416 0.896 0 0.608 0.352 1.184 0.896 1.408s1.056 0.128 1.504-0.288c1.056-1.024 2.080-2.080 3.136-3.104 0.16-0.16 0.128-0.224-0.032-0.352zM6.080 14.496c-0.192-0.576-0.352-1.216-0.384-1.824-0.064-0.704-0.064-0.704-0.736-0.544-1.312 0.352-2.656 0.704-4 1.088-0.672 0.192-1.056 0.832-0.928 1.472 0.096 0.768 0.64 1.28 1.376 1.28 0.096 0 0.224 0 0.32-0.032 1.408-0.384 2.816-0.736 4.224-1.12 0.192-0.032 0.192-0.128 0.128-0.32zM10.496 19.008c-0.192-0.096-0.224 0.032-0.288 0.192-0.352 1.376-0.736 2.752-1.12 4.128-0.192 0.736 0.192 1.472 0.928 1.696 0.832 0.256 1.568-0.128 1.792-0.928 0.096-0.32 0.192-0.672 0.288-1.024 0.32-1.184 0.64-2.368 0.96-3.584-0.896-0.032-1.728-0.16-2.56-0.48z" fill="rgba(255,255,255,1)"></path>
    </g>
  </svg>