<svg xmlns="http://www.w3.org/2000/svg" xmlns:xlink="http://www.w3.org/1999/xlink" viewBox="0 0 32 32" width="24" height="24" style="" filter="none">
    
    <g>
    <path d="M13.333 14.667v-4l6.667 5.333-6.667 5.333v-4h-12v-2.667h12zM3.277 20h2.832c1.63 3.937 5.441 6.656 9.887 6.656 5.888 0 10.662-4.769 10.671-10.655v-0.001c0-0.002 0-0.004 0-0.006 0-5.891-4.776-10.667-10.667-10.667-4.452 0-8.266 2.727-9.865 6.602l-0.026 0.071h-2.832c1.699-5.409 6.752-9.333 12.723-9.333 7.364 0 13.333 5.969 13.333 13.333s-5.969 13.333-13.333 13.333c-5.971 0-11.024-3.924-12.723-9.333z" fill="rgba(0,122,255,1)"></path>
    </g>
  </svg>