<svg xmlns="http://www.w3.org/2000/svg" xmlns:xlink="http://www.w3.org/1999/xlink" width="26" height="26" viewBox="0 0 26 26" fill="none">
<path d="M1 13C1 19.6312 6.3712 25 13 25C19.6312 25 25 19.6312 25 13C25 6.3712 19.6312 1 13 1C6.3712 1 1 6.3712 1 13Z" stroke="rgba(255, 255, 255, 1)" stroke-width="2"      fill="#FFFFFF" >
</path>
<path d="M20.4422 10.201C20.7527 9.81915 20.7247 9.23961 20.3638 8.8787L20.2722 8.80064C19.8903 8.49008 19.3105 8.5178 18.9499 8.87842L12.5859 15.2424L9.05038 11.7068L8.9579 11.6296C8.57691 11.3182 7.99623 11.3468 7.63561 11.7074C7.24698 12.096 7.24726 12.7327 7.63589 13.1213L11.8785 17.364L11.9702 17.442C12.3526 17.7532 12.9318 17.7249 13.2925 17.3643L20.3641 10.2926L20.4422 10.201Z"   fill="#3F8CFF" >
</path>
</svg>
